<?xml version="1.0" encoding="UTF-8"?>
<svg id="Jeroo" xmlns="http://www.w3.org/2000/svg" viewBox="0 0 20 20">
  <defs>
    <style>
      .cls-1 {
        fill: #223e7c;
        stroke-width: 0px;
      }
    </style>
  </defs>
  <path class="cls-1" d="m18.87,6.59c-.84-.95-1.98-1.43-3.41-1.43s-2.51.46-3.33,1.38c-.36.41-.63.86-.82,1.36.14.3.34.66.72,1.14.24.3.58.63,1,.87,0-.09-.01-.17-.01-.26,0-.69.21-1.28.63-1.75.47-.53,1.11-.79,1.92-.79s1.49.27,1.97.82c.44.5.66,1.1.66,1.82s-.21,1.28-.63,1.75c-.3.34-.68.57-1.12.69,0,0,0,0,0,0-.78.28-3.28.29-4.91-1.13-.15-.13-.28-.26-.41-.4.16.77.5,1.46,1.02,2.05.84.95,1.98,1.43,3.41,1.43s2.51-.46,3.33-1.38c.74-.83,1.11-1.85,1.11-3.06s-.38-2.27-1.13-3.12Z"/>
  <path class="cls-1" d="m3.66,9.1c0-1.06.6-1.99,1.15-2.52,1.01-.97,2.46-.77,3.13-.55,1,.33,1.61,1.12,1.98,1.82.39.75.97,2.01,1.98,2.82,1.32,1.07,3.09,1.09,3.87.81.15-.05.32-.61-.07-.68-.17-.03-.76.32-2.07-.01-.46-.12-1.18-.5-1.66-1-.9-.95-1.2-1.96-1.69-2.69-.68-1.03-1.46-1.5-2.06-1.72-.66-.23-2.06-.52-3.38.29-.65.4-1.32,1.31-1.63,2.11-.11.28-.32,1.13-.18,1.25.23.2.64.31.64.07Z"/>
  <path class="cls-1" d="m5.15,6.89c-.07.07-.15.16-.22.25.65.07,1.18.34,1.59.8.44.5.66,1.1.66,1.82s-.21,1.28-.63,1.75c-.47.53-1.11.79-1.92.79s-1.49-.27-1.97-.82c-.44-.5-.66-1.1-.66-1.82,0-.1,0-.2.02-.3,0,0,0,0,0,0,.07-1.05.61-1.9.76-2.16.37-.67,1.1-1.45,1.99-2.01-.1,0-.21,0-.32,0-1.4,0-2.51.46-3.33,1.38-.74.83-1.11,1.85-1.11,3.06s.38,2.27,1.13,3.12c.84.95,1.98,1.43,3.41,1.43s2.51-.46,3.33-1.38c.74-.83,1.11-1.85,1.11-3.06s-.38-2.27-1.13-3.12c-.05-.05-.09-.1-.14-.15-.68-.21-1.67-.41-2.56.45Z"/>
</svg>