<?xml version="1.0" encoding="UTF-8"?>
<svg id="Jeroo" xmlns="http://www.w3.org/2000/svg" viewBox="0 0 649.63 165.91">
  <defs>
    <style>
      .cls-1 {
        fill: #223e7c;
      }

      .cls-1, .cls-2 {
        stroke-width: 0px;
      }

      .cls-2 {
        fill: #3f4040;
      }
    </style>
  </defs>
  <g>
    <path class="cls-2" d="m368.87,33.4h14.7v66.32h27.12v15.52h-41.82V33.4Z"/>
    <path class="cls-2" d="m448.26,115.41c-10.02,0-17.97-3.3-23.85-9.9-5.28-5.94-7.92-13.25-7.92-21.92s2.7-16.22,8.09-22.33c6.04-6.81,14.18-10.22,24.42-10.22s17.97,3.3,23.85,9.9c5.28,5.94,7.92,13.25,7.92,21.92s-2.7,16.22-8.09,22.33c-6.04,6.82-14.19,10.22-24.42,10.22Zm1.39-51.05c-5.94,0-10.65,1.97-14.13,5.89-3.16,3.55-4.74,7.89-4.74,13.02s1.5,9.14,4.49,12.52c3.38,3.77,7.95,5.65,13.72,5.65s10.64-1.96,14.13-5.89c3.16-3.55,4.74-7.89,4.74-13.02s-1.5-9.14-4.49-12.52c-3.38-3.76-7.95-5.65-13.72-5.65Z"/>
    <path class="cls-2" d="m531.24,112.3c-3.98,1.91-8.39,2.86-13.23,2.86-7.79,0-14.81-2.29-21.07-6.86-6.53-4.79-10.24-10.78-11.11-17.97-.27-2.34-.41-4.36-.41-6.04,0-10.07,3.08-18.16,9.23-24.26,5.93-5.88,13.5-8.82,22.71-8.82s16.46,2.86,22.91,8.58c6.45,5.72,9.68,12.82,9.68,21.32v31.94c0,7.13-3.01,13.07-9.03,17.81-5.75,4.52-12.58,6.78-20.5,6.78h-1.22c-2.5,0-4.56-.1-6.18-.29-1.63-.19-3.5-.64-5.61-1.35v-13.64c2.07.65,3.88,1.09,5.43,1.31,1.55.22,3.47.33,5.76.33,1.96,0,4.03-.23,6.21-.69,2.18-.46,3.7-.91,4.57-1.35,2.18-1.09,3.7-2.1,4.57-3.02,1.42-1.52,2.12-3.49,2.12-5.88v-31.04c0-4.9-1.99-8.94-5.96-12.13-3.98-3.19-8.6-4.78-13.89-4.78-4.68,0-8.74,1.8-12.17,5.39-3.43,3.59-5.15,7.76-5.15,12.5,0,.82.08,1.69.24,2.61.82,5.01,3.13,8.96,6.94,11.84,3.48,2.67,7.51,4,12.09,4,5.44,0,9.8-1.8,13.07-5.39v16.25Z"/>
    <path class="cls-2" d="m565.96,50.88c-2.61,0-4.66-.84-6.13-2.53-1.47-1.69-2.21-3.68-2.21-5.96s.72-4.14,2.16-5.72c1.44-1.58,3.5-2.37,6.17-2.37,2.4,0,4.33.87,5.8,2.61,1.31,1.58,1.96,3.49,1.96,5.72s-.69,4.1-2.08,5.76c-1.39,1.66-3.28,2.49-5.68,2.49Zm-7.11,4h13.89v60.36h-13.89v-60.36Z"/>
    <path class="cls-2" d="m622.48,99.48v14.62c-2.61.65-5.28.98-8,.98-8.98,0-16.64-3.19-22.95-9.56-6.32-6.37-9.47-14.08-9.47-23.11s3.17-16.39,9.52-22.54c6.34-6.15,14.01-9.23,22.99-9.23,2.4,0,4.93.35,7.6,1.06v14.29c-2.23-1.03-4.68-1.55-7.35-1.55-4.96,0-9.28,1.63-12.99,4.9-3.92,3.49-5.88,7.92-5.88,13.31s1.96,10.02,5.88,13.56c3.65,3.32,7.98,4.98,12.99,4.98,2.72,0,5.28-.57,7.68-1.72Z"/>
  </g>
  <path class="cls-1" d="m321.15,61.18c-6.05-6.83-14.21-10.24-24.46-10.24s-18,3.3-23.89,9.91c-2.6,2.92-4.55,6.17-5.87,9.75.97,2.17,2.41,4.72,5.18,8.19,1.73,2.17,4.15,4.53,7.15,6.21-.05-.61-.07-1.23-.07-1.87,0-4.97,1.5-9.16,4.5-12.54,3.38-3.77,7.96-5.66,13.75-5.66s10.66,1.97,14.15,5.9c3.16,3.55,4.75,7.9,4.75,13.04s-1.5,9.15-4.5,12.54c-2.18,2.43-4.88,4.07-8.06,4.94,0,0-.02.02-.02.02-5.62,2.02-23.52,2.06-35.19-8.07-1.04-.91-2.02-1.87-2.94-2.85,1.14,5.56,3.59,10.47,7.35,14.73,6.05,6.83,14.21,10.24,24.46,10.24s18-3.3,23.89-9.91c5.29-5.95,7.94-13.27,7.94-21.95s-2.7-16.25-8.1-22.36Z"/>
  <path class="cls-1" d="m212.04,79.23c0-7.59,4.31-14.29,8.21-18.06,7.23-6.97,17.67-5.52,22.41-3.94,7.18,2.4,11.55,8.03,14.17,13.07,2.78,5.36,6.98,14.44,14.16,20.25,9.5,7.69,22.15,7.81,27.77,5.79,1.06-.38,2.29-4.4-.48-4.85-1.22-.2-5.42,2.32-14.85-.1-3.32-.85-8.48-3.56-11.89-7.16-6.43-6.8-8.62-14.04-12.11-19.3-4.91-7.42-10.48-10.78-14.74-12.3-4.7-1.68-14.74-3.76-24.26,2.05-4.67,2.85-9.48,9.36-11.68,15.1-.77,2.01-2.29,8.12-1.3,8.96,1.68,1.43,4.59,2.2,4.59.48Z"/>
  <path class="cls-1" d="m222.74,63.34c-.54.52-1.07,1.11-1.59,1.77,4.66.53,8.47,2.43,11.4,5.73,3.16,3.55,4.75,7.9,4.75,13.04s-1.5,9.15-4.5,12.54c-3.38,3.77-7.96,5.66-13.75,5.66s-10.66-1.97-14.15-5.9c-3.16-3.55-4.74-7.9-4.74-13.04,0-.74.04-1.45.11-2.15,0,0,0-.01,0-.02.52-7.56,4.38-13.62,5.44-15.52,2.68-4.82,7.92-10.37,14.24-14.44-.75-.04-1.5-.06-2.27-.06-10.04,0-18,3.3-23.89,9.91-5.29,5.95-7.94,13.27-7.94,21.95s2.7,16.25,8.1,22.36c6.05,6.83,14.21,10.24,24.46,10.24s18-3.3,23.89-9.91c5.29-5.95,7.94-13.27,7.94-21.95s-2.7-16.25-8.1-22.36c-.33-.38-.68-.74-1.02-1.09-4.85-1.5-11.98-2.91-18.36,3.25Z"/>
  <g>
    <path class="cls-1" d="m31.92,96.04c1.25,1.61,2.69,2.74,4.3,3.38,1.61.64,3.56.96,5.85.96,3,0,5.49-1.12,7.49-3.36,1.99-2.24,2.99-4.94,2.99-8.11v-55.54h14.73v57.98c0,3.11-.44,5.75-1.31,7.9-.87,2.16-2.4,4.54-4.58,7.17-2.18,2.62-5.1,4.83-8.75,6.63-3.38,1.64-6.27,2.46-8.67,2.46-.55,0-.93-.03-1.15-.08-.33.11-1.31-.02-2.95-.37-1.64-.36-2.81-.67-3.52-.95-1.2-.44-2.16-.85-2.86-1.23-.65-.49-1.17-.85-1.55-1.07v-15.77Z"/>
    <path class="cls-1" d="m125.19,78.78c-1.2-4.36-3.48-7.77-6.83-10.23-3.35-2.45-7.35-3.68-11.99-3.68-5.13,0-9.59,1.84-13.38,5.52-3.79,3.68-5.69,8.03-5.69,13.05,0,.87.03,1.53.08,1.96.6,5.4,2.86,9.65,6.79,12.76,3.49,2.78,7.64,4.17,12.44,4.17,2.73,0,5.29-.48,7.69-1.43,2.4-.95,4.44-2.38,6.14-4.29l9.33,9.65c-3.33,3.38-6.82,5.84-10.47,7.36-3.65,1.53-7.88,2.29-12.68,2.29-9,0-16.72-3.11-23.15-9.33-6.44-6.22-9.65-13.77-9.65-22.66s3.12-16.68,9.37-23.03c6.24-6.35,13.84-9.53,22.79-9.53s16.87,3.34,23.6,10.02c6.74,6.68,10.1,14.47,10.1,23.36v2.86c-.16.82-.27,1.42-.33,1.8h-46.14c-.98,0-1.61-.41-1.88-1.23-.27-.82-.41-1.94-.41-3.35v-2.95c0-1.04.11-1.81.33-2.33.22-.52.74-.78,1.55-.78h32.4Z"/>
    <path class="cls-1" d="m162.66,115.51l-15.3-.08v-35.67c0-5.45.99-10.17,2.99-14.15,1.99-3.98,5.17-7.45,9.53-10.39,2.67-1.8,5.18-3.09,7.53-3.89,2.34-.79,4.91-1.19,7.69-1.19.71,0,1.55.04,2.54.12.98.08,2.1.23,3.35.45v14.48c-1.36-.38-2.78-.57-4.25-.57-2.84,0-5.56.95-8.18,2.86-1.91,1.36-3.37,2.92-4.38,4.66-1.01,1.75-1.51,3.76-1.51,6.05v37.31Z"/>
  </g>
</svg>